<?xml version="1.0" standalone="no"?>
<!DOCTYPE svg PUBLIC "-//W3C//DTD SVG 20010904//EN"
 "http://www.w3.org/TR/2001/REC-SVG-20010904/DTD/svg10.dtd">
<svg version="1.0" xmlns="http://www.w3.org/2000/svg"
 width="700.000000pt" height="325.000000pt" viewBox="0 0 700.000000 325.000000"
 preserveAspectRatio="xMidYMid meet">
<metadata>
Created by potrace 1.16, written by Peter Selinger 2001-2019
</metadata>
<g transform="translate(0.000000,325.000000) scale(0.100000,-0.100000)"
fill="#000000" stroke="none">
<path d="M0 1967 l0 -1283 208 -207 208 -207 1472 0 c810 0 1472 2 1472 5 0 3
-11 32 -25 64 -161 384 -349 985 -441 1409 -3 17 -11 22 -35 22 -42 0 -68 16
-84 53 -12 26 -14 28 -15 10 0 -38 -44 -62 -111 -61 l-59 1 0 113 c0 107 1
114 20 114 16 0 20 -7 20 -33 0 -32 1 -32 41 -29 32 3 46 -1 65 -19 13 -12 24
-30 24 -38 0 -9 9 -2 20 16 11 18 31 35 45 39 28 7 30 17 15 95 -6 30 -22 144
-37 254 -34 257 -39 671 -10 848 9 59 17 110 17 112 0 3 -632 5 -1405 5
l-1405 0 0 -1283z m700 354 c0 -40 0 -40 26 -26 15 7 34 11 43 8 17 -6 41 -32
41 -45 0 -12 -38 -10 -45 2 -9 15 -25 12 -25 -4 0 -7 14 -19 30 -26 38 -16 49
-53 25 -80 -23 -26 -60 -25 -86 1 -27 27 -10 51 21 31 24 -14 40 -16 40 -3 0
6 -12 16 -27 23 -16 7 -32 23 -38 35 -5 12 -17 24 -27 26 -14 4 -18 15 -18 51
0 39 3 46 20 46 17 0 20 -7 20 -39z m860 6 c0 -32 1 -32 41 -29 55 6 89 -25
89 -80 0 -62 -33 -88 -109 -85 l-61 1 0 113 c0 106 1 113 20 113 16 0 20 -7
20 -33z m740 -81 l0 -114 -66 2 c-56 2 -70 6 -85 25 -53 66 13 168 89 140 20
-8 22 -5 22 26 0 28 4 35 20 35 19 0 20 -7 20 -114z m-1133 44 c1 0 9 -12 17
-27 l15 -28 1 33 c0 25 4 32 20 32 16 0 19 -8 22 -56 3 -60 20 -83 52 -71 12
5 16 20 16 67 0 53 2 60 20 60 18 0 20 -7 20 -84 l0 -85 -42 1 c-64 1 -77 7
-99 41 -12 20 -19 26 -19 15 0 -24 -48 -58 -82 -58 -35 0 -88 48 -88 79 0 64
55 107 114 90 17 -5 32 -9 33 -9z m760 8 l33 1 0 -83 0 -84 -66 2 c-56 2 -70
6 -85 25 -27 33 -25 92 4 118 23 22 55 33 71 25 5 -3 24 -5 43 -4z m178 -21
c9 -14 15 -45 15 -85 0 -55 -2 -63 -17 -60 -14 2 -19 15 -21 58 -4 74 -24 97
-56 64 -11 -10 -16 -34 -16 -70 0 -47 -3 -55 -17 -52 -15 3 -18 16 -21 85 l-3
82 43 3 c58 4 76 -1 93 -25z m-1179 -27 c10 -27 21 -50 24 -50 3 0 13 23 23
50 13 37 23 50 37 50 11 0 20 -3 20 -7 0 -5 -18 -53 -39 -108 -32 -79 -44
-101 -61 -103 -19 -3 -21 0 -14 20 11 34 10 39 -19 112 -32 79 -33 86 -8 86
14 0 24 -14 37 -50z m-372 -335 c20 -51 32 -72 34 -59 2 11 -6 44 -18 73 -25
64 -25 71 -1 71 13 0 24 -11 32 -35 16 -43 24 -44 35 -2 7 22 17 33 32 35 28
4 27 -1 -2 -73 -13 -33 -21 -65 -18 -73 2 -8 19 21 37 65 l33 78 41 2 c39 2
41 0 41 -28 0 -27 2 -29 39 -29 54 0 71 -25 71 -107 0 -56 -2 -63 -20 -63 -18
0 -20 7 -20 60 0 48 -4 61 -19 70 -32 17 -51 -12 -51 -76 0 -47 -3 -55 -17
-52 -16 3 -18 18 -21 108 l-3 105 -44 -105 c-44 -106 -67 -131 -87 -95 -9 15
-11 15 -22 -1 -7 -9 -20 -15 -27 -12 -12 5 -51 91 -95 211 -6 15 -3 18 16 15
18 -2 29 -19 54 -83z m744 52 c3 -23 8 -27 34 -27 53 0 68 -23 68 -102 0 -61
-2 -68 -20 -68 -18 0 -20 7 -20 60 0 47 -4 61 -18 69 -29 16 -41 -1 -44 -64
-3 -52 -6 -60 -23 -60 -18 0 -20 8 -23 99 -1 55 0 106 3 114 9 23 40 9 43 -21z
m672 -81 l0 -114 -61 -1 c-51 0 -64 3 -85 24 -33 33 -33 87 2 121 20 21 33 25
65 22 36 -3 39 -2 39 23 0 29 7 39 27 39 10 0 13 -26 13 -114z m210 79 c0 -26
4 -33 14 -29 8 3 16 18 18 32 2 16 10 28 21 30 13 3 17 -3 17 -27 0 -26 4 -31
25 -31 18 0 25 -5 25 -20 0 -15 -7 -20 -26 -20 -23 0 -25 -3 -22 -42 2 -36 7
-44 26 -46 32 -5 30 -42 -3 -42 -39 0 -65 33 -65 84 0 43 -23 82 -32 55 -2 -7
-11 -10 -21 -6 -12 4 -17 18 -17 45 0 41 5 52 27 52 8 0 13 -12 13 -35z
m-1214 -75 c10 -27 21 -50 24 -50 3 0 13 23 23 50 13 37 23 50 37 50 11 0 20
-3 20 -7 0 -5 -18 -54 -41 -110 -31 -77 -46 -103 -59 -103 -15 0 -17 6 -13 38
3 27 -4 57 -26 110 l-30 72 24 0 c19 0 26 -9 41 -50z m591 28 c32 -30 32 -90
-2 -123 -53 -53 -145 -15 -145 60 0 75 92 114 147 63z m73 -27 c0 -64 7 -81
35 -81 28 0 35 17 35 81 0 42 3 49 20 49 18 0 20 -7 20 -84 l0 -84 -52 0 c-77
0 -98 22 -98 105 0 56 2 63 20 63 17 0 20 -7 20 -49z m482 32 c14 -13 18 -31
18 -85 0 -61 -2 -68 -20 -68 -18 0 -20 7 -20 60 0 47 -4 61 -18 69 -29 16 -41
-1 -44 -64 -2 -48 -7 -60 -20 -63 -16 -3 -18 6 -18 82 l0 86 52 0 c34 0 58 -6
70 -17z m-762 -313 c0 -27 3 -30 33 -30 42 0 53 -8 71 -50 10 -23 15 -28 16
-16 0 35 40 66 83 66 31 0 45 -7 68 -31 16 -17 29 -26 29 -20 0 6 9 20 20 31
40 40 140 15 140 -35 0 -8 -9 -15 -20 -15 -11 0 -20 4 -20 10 0 5 -9 14 -20
20 -40 22 -83 -27 -60 -70 14 -27 65 -27 80 0 14 26 40 26 40 1 0 -27 -47 -61
-84 -61 -35 1 -57 15 -75 48 -10 19 -19 22 -77 22 -48 0 -64 -3 -61 -12 3 -9
22 -12 61 -10 60 2 70 -7 34 -32 -48 -34 -136 -4 -139 47 -1 12 -5 4 -8 -18
-4 -27 -12 -41 -23 -43 -15 -3 -18 5 -18 52 0 64 -19 93 -51 76 -15 -9 -19
-22 -19 -70 0 -53 -2 -60 -20 -60 -19 0 -20 7 -20 108 0 60 3 112 7 115 16 17
33 5 33 -23z m515 10 c4 -11 6 -35 5 -53 -3 -50 -2 -51 26 -18 16 19 35 31 51
31 l25 0 -30 -38 -30 -38 29 -39 c34 -45 36 -55 10 -55 -11 0 -29 14 -41 30
-27 38 -36 38 -44 -1 -4 -22 -11 -30 -23 -27 -16 3 -18 17 -21 102 -1 55 0
106 2 113 8 20 34 16 41 -7z m-1335 -65 c6 -14 15 -37 21 -52 l11 -28 24 53
c18 39 29 52 45 52 11 0 19 -4 17 -9 -80 -204 -83 -211 -105 -211 -20 0 -21 3
-12 29 8 23 4 42 -21 105 -16 42 -30 79 -30 81 0 3 9 5 20 5 13 0 24 -10 30
-25z m255 0 c54 -53 16 -145 -60 -145 -50 0 -85 36 -85 89 0 31 6 44 26 60 37
29 89 27 119 -4z m77 -37 c3 -60 4 -63 28 -63 23 0 25 4 30 60 4 52 8 60 25
60 18 0 20 -7 20 -80 l0 -80 -53 -2 c-74 -4 -92 16 -92 102 0 58 2 65 20 65
16 0 19 -8 22 -62z m412 41 c14 -11 26 -27 26 -35 0 -18 -39 -18 -46 0 -15 38
-84 15 -84 -28 0 -46 58 -64 82 -26 15 24 48 27 48 5 0 -9 -11 -27 -25 -40
-53 -54 -145 -16 -145 60 0 74 84 111 144 64z m831 -4 c17 -16 25 -35 25 -60
0 -25 -8 -44 -25 -60 -16 -17 -35 -25 -60 -25 -25 0 -44 8 -60 25 -17 16 -25
35 -25 60 0 25 8 44 25 60 16 17 35 25 60 25 25 0 44 -8 60 -25z m77 -37 c3
-60 4 -63 29 -66 30 -4 39 15 39 86 0 36 3 43 18 40 14 -3 17 -15 17 -83 l0
-80 -53 -2 c-74 -4 -92 16 -92 102 0 58 2 65 20 65 16 0 19 -8 22 -62z m-517
-588 l0 -145 -590 0 -590 0 -3 148 -3 147 593 -2 593 -3 0 -145z"/>
<path d="M5744 3167 c-2 -7 -3 -60 -2 -118 l3 -104 379 -3 c271 -1 383 1 392
9 18 15 20 199 2 217 -18 18 -767 17 -774 -1z"/>
<path d="M5036 2465 c-9 -13 -16 -33 -16 -43 0 -25 -75 -96 -91 -87 -7 5 -10
4 -6 -2 4 -6 -6 -16 -23 -22 -18 -6 -28 -6 -25 -1 4 6 -3 10 -14 10 -12 0 -21
-7 -21 -15 0 -10 -10 -15 -30 -15 -16 0 -30 -4 -30 -9 0 -5 -19 -15 -42 -23
-44 -13 -67 -44 -82 -111 -6 -25 -4 -28 16 -25 19 2 24 11 28 43 5 39 6 40 49
43 l44 3 -27 -36 -28 -36 71 7 c40 4 88 12 107 19 82 28 150 98 207 214 l17
35 -37 38 c-20 21 -40 38 -44 38 -4 0 -14 -11 -23 -25z"/>
<path d="M6294 990 c-28 -11 -61 -54 -69 -89 -14 -64 51 -141 118 -141 40 0
84 26 102 60 19 38 19 100 -1 128 -31 44 -98 63 -150 42z"/>
<path d="M6756 300 c-59 -18 -106 -85 -106 -151 0 -49 38 -106 85 -129 52 -25
86 -25 136 0 59 30 81 72 76 143 -3 49 -8 62 -37 92 -19 19 -50 40 -70 45 -40
11 -45 11 -84 0z m121 -120 c1 -36 0 -40 -7 -20 -8 24 -8 24 -9 -6 -1 -34 -17
-54 -42 -54 -10 0 -20 -6 -22 -12 -4 -10 -8 -10 -14 -2 -4 7 -17 13 -28 15
-27 6 -42 51 -27 84 10 21 19 25 54 26 l43 2 -35 7 c-29 7 -24 8 25 6 l60 -1
2 -45z"/>
</g>
</svg>
